<svg width="24" height="25" viewBox="0 0 24 25" fill="none" xmlns="http://www.w3.org/2000/svg">
<path d="M11 13.2578V16.2578C11 16.5411 11.096 16.7788 11.288 16.9708C11.48 17.1628 11.7173 17.2585 12 17.2578C12.2833 17.2578 12.521 17.1618 12.713 16.9698C12.905 16.7778 13.0007 16.5405 13 16.2578V13.2578H16C16.2833 13.2578 16.521 13.1618 16.713 12.9698C16.905 12.7778 17.0007 12.5405 17 12.2578C17 11.9745 16.904 11.7368 16.712 11.5448C16.52 11.3528 16.2827 11.2571 16 11.2578H13V8.25781C13 7.97448 12.904 7.73681 12.712 7.54481C12.52 7.35281 12.2827 7.25715 12 7.25781C11.7167 7.25781 11.479 7.35381 11.287 7.54581C11.095 7.73781 10.9993 7.97515 11 8.25781V11.2578H8C7.71667 11.2578 7.479 11.3538 7.287 11.5458C7.095 11.7378 6.99933 11.9751 7 12.2578C7 12.5411 7.096 12.7788 7.288 12.9708C7.48 13.1628 7.71733 13.2585 8 13.2578H11ZM12 22.2578C10.6167 22.2578 9.31667 21.9951 8.1 21.4698C6.88333 20.9445 5.825 20.2321 4.925 19.3328C4.025 18.4328 3.31267 17.3745 2.788 16.1578C2.26333 14.9411 2.00067 13.6411 2 12.2578C2 10.8745 2.26267 9.57448 2.788 8.35781C3.31333 7.14115 4.02567 6.08281 4.925 5.18281C5.825 4.28281 6.88333 3.57048 8.1 3.04581C9.31667 2.52115 10.6167 2.25848 12 2.25781C13.3833 2.25781 14.6833 2.52048 15.9 3.04581C17.1167 3.57115 18.175 4.28348 19.075 5.18281C19.975 6.08281 20.6877 7.14115 21.213 8.35781C21.7383 9.57448 22.0007 10.8745 22 12.2578C22 13.6411 21.7373 14.9411 21.212 16.1578C20.6867 17.3745 19.9743 18.4328 19.075 19.3328C18.175 20.2328 17.1167 20.9455 15.9 21.4708C14.6833 21.9961 13.3833 22.2585 12 22.2578Z" fill="#44E72A"/>
</svg>
