<svg width="13" height="11" viewBox="0 0 13 11" fill="none" xmlns="http://www.w3.org/2000/svg">
<path d="M5.369 10.2978C5.311 10.2413 5.063 10.0279 4.859 9.82919C3.576 8.66407 1.476 5.62462 0.835 4.03377C0.732 3.79217 0.514 3.18136 0.5 2.85501C0.5 2.5423 0.572 2.2442 0.718 1.95973C0.922 1.60513 1.243 1.32067 1.622 1.1648C1.885 1.06446 2.672 0.90859 2.686 0.90859C3.547 0.75272 4.946 0.666992 6.492 0.666992C7.965 0.666992 9.307 0.75272 10.181 0.880339C10.195 0.894951 11.173 1.05082 11.508 1.2213C12.12 1.53402 12.5 2.14483 12.5 2.79851V2.85501C12.485 3.28073 12.105 4.176 12.091 4.176C11.449 5.68112 9.452 8.65043 8.125 9.84381C8.125 9.84381 7.784 10.1799 7.571 10.326C7.265 10.554 6.886 10.667 6.507 10.667C6.084 10.667 5.69 10.5394 5.369 10.2978Z" fill="#FEFEFE"/>
</svg>
