<svg width="24" height="25" viewBox="0 0 24 25" fill="none" xmlns="http://www.w3.org/2000/svg">
<g clip-path="url(#clip0_156_1970)">
<g filter="url(#filter0_d_156_1970)">
<path d="M16 2.25757H8C4.691 2.25757 2 4.94857 2 8.25757V21.2576C2 21.5228 2.10536 21.7771 2.29289 21.9647C2.48043 22.1522 2.73478 22.2576 3 22.2576H16C19.309 22.2576 22 19.5666 22 16.2576V8.25757C22 4.94857 19.309 2.25757 16 2.25757ZM8.999 17.2576H7V15.2586L12.53 9.73657L14.529 11.7356L8.999 17.2576ZM15.472 10.7926L13.473 8.79357L14.997 7.27057L16.996 9.26957L15.472 10.7926Z" fill="#44E72A"/>
</g>
</g>
<defs>
<filter id="filter0_d_156_1970" x="-2" y="-0.742432" width="28" height="28" filterUnits="userSpaceOnUse" color-interpolation-filters="sRGB">
<feFlood flood-opacity="0" result="BackgroundImageFix"/>
<feColorMatrix in="SourceAlpha" type="matrix" values="0 0 0 0 0 0 0 0 0 0 0 0 0 0 0 0 0 0 127 0" result="hardAlpha"/>
<feOffset dy="1"/>
<feGaussianBlur stdDeviation="2"/>
<feComposite in2="hardAlpha" operator="out"/>
<feColorMatrix type="matrix" values="0 0 0 0 0 0 0 0 0 0 0 0 0 0 0 0 0 0 0.25 0"/>
<feBlend mode="normal" in2="BackgroundImageFix" result="effect1_dropShadow_156_1970"/>
<feBlend mode="normal" in="SourceGraphic" in2="effect1_dropShadow_156_1970" result="shape"/>
</filter>
<clipPath id="clip0_156_1970">
<rect width="24" height="24" fill="white" transform="translate(0 0.257568)"/>
</clipPath>
</defs>
</svg>
