<svg width="24" height="25" viewBox="0 0 24 25" fill="none" xmlns="http://www.w3.org/2000/svg">
<path d="M13 12.2578H16L12 16.2578L8 12.2578H11V8.25781H13V12.2578ZM15 4.25781H5V20.2578H19V8.25781H15V4.25781ZM3 3.24981C3 2.70181 3.447 2.25781 3.998 2.25781H16L21 7.25781V21.2498C21.0011 21.3812 20.9762 21.5115 20.9269 21.6333C20.8775 21.7551 20.8046 21.866 20.7124 21.9596C20.6202 22.0532 20.5104 22.1278 20.3894 22.1789C20.2683 22.2301 20.1384 22.2569 20.007 22.2578H3.993C3.73038 22.256 3.47902 22.1509 3.29322 21.9653C3.10742 21.7797 3.00209 21.5284 3 21.2658V3.24981Z" fill="#FEFEFE"/>
</svg>
