<svg width="13" height="13" viewBox="0 0 13 13" fill="none" xmlns="http://www.w3.org/2000/svg">
<path d="M4.9375 8.14231C7.47925 8.14231 9.625 8.56054 9.625 10.1758C9.625 11.791 7.46548 12.1953 4.9375 12.1953C2.39575 12.1953 0.25 11.7765 0.25 10.1618C0.25 8.54659 2.40889 8.14231 4.9375 8.14231ZM10.8744 3.44531C11.1845 3.44531 11.4362 3.70122 11.4362 4.01507V4.75023H12.1881C12.4976 4.75023 12.75 5.00613 12.75 5.31999C12.75 5.63384 12.4976 5.88975 12.1881 5.88975H11.4362V6.62555C11.4362 6.93941 11.1845 7.19531 10.8744 7.19531C10.5649 7.19531 10.3125 6.93941 10.3125 6.62555V5.88975H9.56186C9.25171 5.88975 9 5.63384 9 5.31999C9 5.00613 9.25171 4.75023 9.56186 4.75023H10.3125V4.01507C10.3125 3.70122 10.5649 3.44531 10.8744 3.44531ZM4.9375 0.320312C6.65911 0.320312 8.03914 1.71821 8.03914 3.46209C8.03914 5.20597 6.65911 6.60386 4.9375 6.60386C3.21589 6.60386 1.83586 5.20597 1.83586 3.46209C1.83586 1.71821 3.21589 0.320312 4.9375 0.320312Z" fill="#FEFEFE"/>
</svg>
