<svg width="15" height="16" viewBox="0 0 15 16" fill="none" xmlns="http://www.w3.org/2000/svg">
<path d="M4.35586 5.77695C4.2679 5.689 4.21849 5.5697 4.21849 5.44531C4.21849 5.32092 4.2679 5.20163 4.35586 5.11367C4.44382 5.02572 4.56311 4.9763 4.6875 4.9763C4.81189 4.9763 4.93118 5.02572 5.01914 5.11367L7.03125 7.12637V2.16406C7.03125 2.03974 7.08064 1.92051 7.16854 1.83261C7.25645 1.7447 7.37568 1.69531 7.5 1.69531C7.62432 1.69531 7.74355 1.7447 7.83146 1.83261C7.91936 1.92051 7.96875 2.03974 7.96875 2.16406V7.12637L9.98086 5.11367C10.0688 5.02572 10.1881 4.9763 10.3125 4.9763C10.4369 4.9763 10.5562 5.02572 10.6441 5.11367C10.7321 5.20163 10.7815 5.32092 10.7815 5.44531C10.7815 5.5697 10.7321 5.689 10.6441 5.77695L7.83164 8.58945C7.78811 8.63304 7.73641 8.66761 7.6795 8.6912C7.6226 8.71479 7.5616 8.72693 7.5 8.72693C7.4384 8.72693 7.3774 8.71479 7.3205 8.6912C7.26359 8.66761 7.21189 8.63304 7.16836 8.58945L4.35586 5.77695ZM14.0625 8.72656V12.4766C14.0625 12.7252 13.9637 12.9637 13.7879 13.1395C13.6121 13.3153 13.3736 13.4141 13.125 13.4141H1.875C1.62636 13.4141 1.3879 13.3153 1.21209 13.1395C1.03627 12.9637 0.9375 12.7252 0.9375 12.4766V8.72656C0.9375 8.47792 1.03627 8.23947 1.21209 8.06365C1.3879 7.88783 1.62636 7.78906 1.875 7.78906H4.94531C4.9761 7.78904 5.00659 7.79508 5.03504 7.80684C5.06349 7.81861 5.08935 7.83586 5.11113 7.85762L6.50391 9.25391C6.63455 9.38501 6.78979 9.48903 6.96072 9.56C7.13166 9.63098 7.31492 9.66752 7.5 9.66752C7.68508 9.66752 7.86834 9.63098 8.03928 9.56C8.21021 9.48903 8.36545 9.38501 8.49609 9.25391L9.89062 7.85938C9.9339 7.81522 9.99287 7.78994 10.0547 7.78906H13.125C13.3736 7.78906 13.6121 7.88783 13.7879 8.06365C13.9637 8.23947 14.0625 8.47792 14.0625 8.72656ZM11.7188 10.6016C11.7188 10.4625 11.6775 10.3266 11.6003 10.2109C11.523 10.0953 11.4132 10.0052 11.2847 9.95196C11.1562 9.89874 11.0148 9.88482 10.8785 9.91195C10.7421 9.93908 10.6168 10.006 10.5184 10.1044C10.4201 10.2027 10.3531 10.328 10.326 10.4644C10.2989 10.6008 10.3128 10.7422 10.366 10.8706C10.4192 10.9991 10.5094 11.1089 10.625 11.1862C10.7406 11.2634 10.8766 11.3047 11.0156 11.3047C11.2021 11.3047 11.3809 11.2306 11.5128 11.0987C11.6447 10.9669 11.7188 10.788 11.7188 10.6016Z" fill="#FEFEFE"/>
</svg>
